<svg xmlns="http://www.w3.org/2000/svg" viewBox="0 0 390 844" width="390" height="844" style="font-family:-apple-system,BlinkMacSystemFont,'Segoe UI',Roboto,sans-serif">
  <!-- Background -->
  <rect width="390" height="844" fill="#0d0d0d"/>

  <!-- ── Header ── -->
  <rect x="0" y="0" width="390" height="56" fill="#1a1a1a"/>
  <line x1="0" y1="56" x2="390" y2="56" stroke="#2e2e2e" stroke-width="1"/>
  <text x="16" y="35" fill="#00C853" font-size="17" font-weight="800">Squash Trainer</text>
  <text x="270" y="33" fill="#888" font-size="13">player@squash.com</text>
  <rect x="336" y="18" width="46" height="22" rx="6" fill="transparent" stroke="#2e2e2e" stroke-width="1.5"/>
  <text x="359" y="33" text-anchor="middle" fill="#888" font-size="12" font-weight="600">Logout</text>

  <!-- ── Page title ── -->
  <text x="16" y="96" fill="#f0f0f0" font-size="24" font-weight="800">Session History</text>

  <!-- ── History item 1 ── -->
  <rect x="16" y="108" width="358" height="62" rx="14" fill="#1a1a1a" stroke="#2e2e2e" stroke-width="1"/>
  <text x="36" y="134" fill="#888" font-size="14">1 Mar 2026, 10:32 AM</text>
  <text x="36" y="157" fill="#666" font-size="12">Duration</text>
  <text x="354" y="148" text-anchor="end" fill="#00C853" font-size="22" font-weight="700">08:45</text>

  <!-- ── History item 2 ── -->
  <rect x="16" y="180" width="358" height="62" rx="14" fill="#1a1a1a" stroke="#2e2e2e" stroke-width="1"/>
  <text x="36" y="206" fill="#888" font-size="14">28 Feb 2026, 6:15 PM</text>
  <text x="36" y="229" fill="#666" font-size="12">Duration</text>
  <text x="354" y="220" text-anchor="end" fill="#00C853" font-size="22" font-weight="700">05:00</text>

  <!-- ── History item 3 ── -->
  <rect x="16" y="252" width="358" height="62" rx="14" fill="#1a1a1a" stroke="#2e2e2e" stroke-width="1"/>
  <text x="36" y="278" fill="#888" font-size="14">28 Feb 2026, 10:00 AM</text>
  <text x="36" y="301" fill="#666" font-size="12">Duration</text>
  <text x="354" y="292" text-anchor="end" fill="#00C853" font-size="22" font-weight="700">10:00</text>

  <!-- ── History item 4 ── -->
  <rect x="16" y="324" width="358" height="62" rx="14" fill="#1a1a1a" stroke="#2e2e2e" stroke-width="1"/>
  <text x="36" y="350" fill="#888" font-size="14">27 Feb 2026, 8:45 PM</text>
  <text x="36" y="373" fill="#666" font-size="12">Duration</text>
  <text x="354" y="364" text-anchor="end" fill="#00C853" font-size="22" font-weight="700">03:22</text>

  <!-- ── History item 5 (incomplete) ── -->
  <rect x="16" y="396" width="358" height="62" rx="14" fill="#1a1a1a" stroke="#2e2e2e" stroke-width="1"/>
  <text x="36" y="422" fill="#888" font-size="14">26 Feb 2026, 4:20 PM</text>
  <text x="36" y="445" fill="#666" font-size="12">Duration</text>
  <text x="354" y="436" text-anchor="end" fill="#666" font-size="14" font-weight="500">Incomplete</text>

  <!-- ── Bottom nav ── -->
  <rect x="0" y="780" width="390" height="64" fill="#1a1a1a"/>
  <line x1="0" y1="780" x2="390" y2="780" stroke="#2e2e2e" stroke-width="1"/>

  <!-- Settings tab -->
  <text x="65" y="807" text-anchor="middle" fill="#888" font-size="20">⚙</text>
  <text x="65" y="826" text-anchor="middle" fill="#888" font-size="11" font-weight="600">Settings</text>

  <!-- Session tab -->
  <text x="195" y="807" text-anchor="middle" fill="#888" font-size="20">▶</text>
  <text x="195" y="826" text-anchor="middle" fill="#888" font-size="11" font-weight="600">Session</text>

  <!-- History tab (active) -->
  <text x="325" y="807" text-anchor="middle" fill="#00C853" font-size="20">📋</text>
  <text x="325" y="826" text-anchor="middle" fill="#00C853" font-size="11" font-weight="600">History</text>
</svg>
